<svg width="379" height="138" viewBox="0 0 379 138" fill="none" xmlns="http://www.w3.org/2000/svg">
<path d="M202.774 92.924C202.774 95.2097 202.34 97.3575 201.473 99.3674C200.606 101.377 199.424 103.141 197.926 104.658C196.429 106.156 194.675 107.348 192.665 108.234C190.655 109.101 188.508 109.545 186.222 109.564H163.522V64.1653H169.581V103.505H186.222C187.68 103.505 189.04 103.229 190.301 102.678C191.581 102.106 192.695 101.348 193.641 100.402C194.586 99.4363 195.335 98.3132 195.887 97.0324C196.439 95.7516 196.715 94.3821 196.715 92.924C196.715 91.4659 196.439 90.0964 195.887 88.8156C195.335 87.5348 194.586 86.4215 193.641 85.4757C192.695 84.5102 191.581 83.7515 190.301 83.1998C189.04 82.6284 187.68 82.3328 186.222 82.3131H172.626V76.2835H186.222C188.508 76.2835 190.655 76.7269 192.665 77.6136C194.675 78.4806 196.429 79.6727 197.926 81.19C199.424 82.6875 200.606 84.4511 201.473 86.4806C202.34 88.4905 202.774 90.6383 202.774 92.924ZM249.592 92.924C249.592 95.2097 249.158 97.3575 248.291 99.3674C247.424 101.377 246.242 103.141 244.744 104.658C243.266 106.156 241.523 107.348 239.513 108.234C237.503 109.101 235.355 109.545 233.069 109.564H223.759C221.473 109.545 219.325 109.101 217.316 108.234C215.306 107.348 213.552 106.156 212.054 104.658C210.577 103.141 209.404 101.377 208.537 99.3674C207.67 97.3575 207.237 95.2097 207.237 92.924C207.237 90.6383 207.67 88.4905 208.537 86.4806C209.404 84.4511 210.577 82.6875 212.054 81.19C213.552 79.6727 215.306 78.4806 217.316 77.6136C219.325 76.7269 221.473 76.2835 223.759 76.2835H233.069C234.587 76.2835 236.055 76.4806 237.473 76.8747C238.892 77.2688 240.212 77.8303 241.434 78.5594C242.656 79.2885 243.769 80.1653 244.774 81.19C245.779 82.1949 246.636 83.318 247.345 84.5594C248.055 85.7811 248.606 87.1013 249 88.52C249.395 89.9388 249.592 91.4067 249.592 92.924ZM243.562 92.924C243.562 91.4659 243.286 90.0964 242.734 88.8156C242.183 87.5348 241.434 86.4215 240.488 85.4757C239.542 84.5102 238.429 83.7515 237.148 83.1998C235.887 82.6284 234.527 82.3328 233.069 82.3131H223.759C222.301 82.3328 220.931 82.6284 219.651 83.1998C218.389 83.7515 217.286 84.5102 216.34 85.4757C215.394 86.4215 214.646 87.5348 214.094 88.8156C213.562 90.0964 213.296 91.4659 213.296 92.924C213.296 94.3821 213.562 95.7516 214.094 97.0324C214.646 98.3132 215.394 99.4363 216.34 100.402C217.286 101.348 218.389 102.106 219.651 102.678C220.931 103.229 222.301 103.505 223.759 103.505H233.069C234.527 103.505 235.887 103.229 237.148 102.678C238.429 102.106 239.542 101.348 240.488 100.402C241.434 99.4363 242.183 98.3132 242.734 97.0324C243.286 95.7516 243.562 94.3821 243.562 92.924ZM296.469 92.924C296.469 95.2097 296.035 97.3575 295.168 99.3674C294.301 101.377 293.119 103.141 291.621 104.658C290.143 106.156 288.4 107.348 286.39 108.234C284.38 109.101 282.232 109.545 279.946 109.564H270.636C268.35 109.545 266.202 109.101 264.193 108.234C262.183 107.348 260.429 106.156 258.931 104.658C257.454 103.141 256.281 101.377 255.414 99.3674C254.547 97.3575 254.114 95.2097 254.114 92.924C254.114 90.6383 254.547 88.4905 255.414 86.4806C256.281 84.4511 257.454 82.6875 258.931 81.19C260.429 79.6727 262.183 78.4806 264.193 77.6136C266.202 76.7269 268.35 76.2835 270.636 76.2835H279.946C281.464 76.2835 282.932 76.4806 284.35 76.8747C285.769 77.2688 287.089 77.8303 288.311 78.5594C289.533 79.2885 290.646 80.1653 291.651 81.19C292.656 82.1949 293.513 83.318 294.222 84.5594C294.932 85.7811 295.483 87.1013 295.877 88.52C296.272 89.9388 296.469 91.4067 296.469 92.924ZM290.439 92.924C290.439 91.4659 290.163 90.0964 289.611 88.8156C289.06 87.5348 288.311 86.4215 287.365 85.4757C286.419 84.5102 285.306 83.7515 284.025 83.1998C282.764 82.6284 281.404 82.3328 279.946 82.3131H270.636C269.178 82.3328 267.808 82.6284 266.528 83.1998C265.266 83.7515 264.163 84.5102 263.217 85.4757C262.271 86.4215 261.523 87.5348 260.971 88.8156C260.439 90.0964 260.173 91.4659 260.173 92.924C260.173 94.3821 260.439 95.7516 260.971 97.0324C261.523 98.3132 262.271 99.4363 263.217 100.402C264.163 101.348 265.266 102.106 266.528 102.678C267.808 103.229 269.178 103.505 270.636 103.505H279.946C281.404 103.505 282.764 103.229 284.025 102.678C285.306 102.106 286.419 101.348 287.365 100.402C288.311 99.4363 289.06 98.3132 289.611 97.0324C290.163 95.7516 290.439 94.3821 290.439 92.924ZM337.848 98.9831C337.848 100.441 337.572 101.821 337.02 103.121C336.469 104.402 335.71 105.525 334.745 106.491C333.799 107.436 332.676 108.185 331.375 108.737C330.094 109.289 328.725 109.564 327.267 109.564H301.523V103.505H327.267C327.878 103.505 328.459 103.387 329.011 103.151C329.562 102.914 330.045 102.589 330.459 102.175C330.873 101.761 331.198 101.289 331.434 100.757C331.671 100.205 331.789 99.6137 331.789 98.9831C331.789 98.3723 331.671 97.791 331.434 97.2393C331.198 96.6876 330.873 96.2048 330.459 95.791C330.045 95.3772 329.562 95.0521 329.011 94.8156C328.459 94.5595 327.878 94.4314 327.267 94.4314H310.597C309.336 94.4314 308.153 94.1949 307.05 93.722C305.946 93.2491 304.981 92.6087 304.153 91.8008C303.345 90.9732 302.705 90.0077 302.232 88.9043C301.759 87.8008 301.523 86.6186 301.523 85.3575C301.523 84.0964 301.759 82.9141 302.232 81.8106C302.705 80.7072 303.345 79.7515 304.153 78.9436C304.981 78.1161 305.946 77.4658 307.05 76.9929C308.153 76.52 309.336 76.2835 310.597 76.2835H334.833V82.3131H310.597C309.749 82.3131 309.03 82.6087 308.439 83.1998C307.868 83.7712 307.582 84.4905 307.582 85.3575C307.582 86.2048 307.868 86.924 308.439 87.5151C309.03 88.0865 309.749 88.3723 310.597 88.3723H327.267C328.725 88.3723 330.094 88.6481 331.375 89.1998C332.676 89.7516 333.799 90.5102 334.745 91.4757C335.71 92.4412 336.469 93.5644 337.02 94.8452C337.572 96.126 337.848 97.5053 337.848 98.9831ZM355.641 109.564H349.582V82.3131H340.508V76.2835H349.582V64.1653H355.641V76.2835H376.833V82.3131H355.641V109.564Z" fill="#EF7E06"/>
<path d="M171.103 40.2919H99.5442V109H88.0835V28.8312H171.103V40.2919ZM161.264 74.6739H105.247V63.2132H161.264V74.6739Z" fill="#00003F"/>
<path d="M21.0764 109H9.61578V28.8312H15.3182C19.0452 28.8312 22.9959 29.3158 27.1702 30.2848C31.3817 31.2538 35.6678 32.6515 40.0285 34.4777C44.3891 36.304 48.7311 38.5216 53.0545 41.1305C57.4151 43.7022 61.6267 46.6279 65.6892 49.9077C69.7517 53.1875 73.5719 56.7654 77.1499 60.6416C80.7278 64.4804 83.9331 68.5802 86.7656 72.9408V28.8312H98.2263V109H86.7656C86.7656 103.111 85.7407 97.4462 83.6908 92.0047C81.6409 86.5259 78.9016 81.364 75.4727 76.5188C72.0438 71.6736 68.0931 67.2198 63.6207 63.1573C59.1482 59.0576 54.4708 55.461 49.5883 52.3675C44.7432 49.2741 39.8608 46.7397 34.9411 44.7644C30.0214 42.7518 25.3998 41.41 21.0764 40.7391V109Z" fill="#00003F"/>
</svg>
